<svg xmlns="http://www.w3.org/2000/svg" width="80" height="80" viewBox="0 0 80 80"><path d="M13.246,0H66.754A13.254,13.254,0,0,1,80,13.246V66.754A13.254,13.254,0,0,1,66.754,80H13.246A13.254,13.254,0,0,1,0,66.754V13.246A13.254,13.254,0,0,1,13.246,0Z" fill="#00c73c"/><path d="M22.8,21.983V12.834a2.024,2.024,0,1,1,4.049,0v9.139a13.752,13.752,0,0,0,27.5,0V12.834a2.024,2.024,0,1,1,4.049,0v9.139a17.8,17.8,0,0,1-35.6,0Z" transform="translate(-0.61 -0.289)" fill="#fff"/><path d="M69.272,69.953H64.688L56.824,60.3v9.655H51.53V53.7h4.584l7.864,9.839V53.7h5.294Z" transform="translate(-1.379 -1.437)" fill="#fff"/></svg>